<svg width="103" height="24" viewBox="0 0 103 24" fill="none" xmlns="http://www.w3.org/2000/svg">
<path fill-rule="evenodd" clip-rule="evenodd" d="M33.551 14.4183V15.9948H37.3778C37.3177 16.7374 37.0055 17.4379 36.4919 17.9829C35.7177 18.7626 34.6463 19.1825 33.5421 19.139C31.1938 19.139 29.2902 17.2568 29.2902 14.935C29.2902 12.6133 31.1938 10.7311 33.5421 10.7311C34.6209 10.7137 35.6626 11.12 36.4387 11.8609L37.5637 10.7486C36.5051 9.68871 35.0575 9.09791 33.551 9.11084C31.4064 9.0283 29.388 10.1125 28.2909 11.9363C27.1937 13.76 27.1937 16.0312 28.2909 17.855C29.388 19.6788 31.4064 20.7629 33.551 20.6804C35.085 20.749 36.5741 20.1582 37.6346 19.0602C38.5626 18.052 39.0581 16.7268 39.0165 15.3642C39.0193 15.0322 38.9897 14.7008 38.9279 14.3745L33.551 14.4183ZM43.3752 13.2711C41.2971 13.2759 39.616 14.9445 39.6192 16.9991C39.6225 19.0538 41.3089 20.7171 43.387 20.7156C45.465 20.7139 47.1487 19.0479 47.1487 16.9933C47.1633 15.9987 46.7689 15.0408 46.0558 14.3391C45.3428 13.6374 44.3722 13.252 43.3663 13.2711H43.3752ZM47.875 17.0049C47.8685 14.9514 49.5451 13.2807 51.622 13.2711C52.6279 13.252 53.5985 13.6374 54.3116 14.3391C55.0247 15.0408 55.4191 15.9987 55.4045 16.9933C55.4045 19.0467 53.7225 20.7123 51.6456 20.7155C49.5688 20.7187 47.8815 19.0584 47.875 17.0049ZM49.4 17.9728C49.8046 18.81 50.6855 19.3175 51.6216 19.2529C52.2092 19.2393 52.7663 18.9918 53.1666 18.5663C53.5669 18.1409 53.7764 17.5736 53.7476 16.9932C53.7454 16.0654 53.1697 15.2332 52.2959 14.8948C51.4222 14.5564 50.428 14.7804 49.7889 15.4597C49.1497 16.139 48.9955 17.1356 49.4 17.9728ZM41.1472 17.9794C41.5546 18.8161 42.4382 19.3212 43.3747 19.2529H43.3659C43.9535 19.2393 44.5106 18.9918 44.9109 18.5663C45.3112 18.1409 45.5207 17.5736 45.4919 16.9932C45.4893 16.0646 44.9125 15.2321 44.0377 14.8944C43.1629 14.5567 42.1682 14.7825 41.5299 15.4638C40.8917 16.1449 40.7399 17.1428 41.1472 17.9794ZM70.4636 13.2711C71.9324 13.3246 73.2152 14.2689 73.6882 15.6446L73.8739 16.0388L68.8337 18.097C69.1496 18.8083 69.8733 19.2563 70.6585 19.2267C71.4169 19.2286 72.1199 18.8361 72.5096 18.1933L73.7941 19.0691C73.0954 20.1039 71.9168 20.7223 70.6585 20.7156C69.658 20.7301 68.6945 20.3418 67.9895 19.6398C67.2845 18.9378 66.8985 17.9825 66.9203 16.9934C66.8591 16.027 67.2052 15.0786 67.8764 14.3734C68.5477 13.6683 69.4842 13.2693 70.4636 13.2711ZM68.5499 16.8882C68.5137 16.341 68.7017 15.8023 69.0716 15.3937C69.4416 14.9851 69.9623 14.7409 70.5165 14.7161C71.1005 14.6781 71.6512 14.9882 71.9159 15.5044L68.5499 16.8882ZM66.1139 20.4966H64.4573V9.5488H66.1139V20.4966ZM61.7465 14.1032H61.6845C61.1795 13.5451 60.4577 13.2264 59.7003 13.2274C57.6896 13.3238 56.1095 14.9637 56.1095 16.954C56.1095 18.9443 57.6896 20.5842 59.7003 20.6807C60.4601 20.6933 61.1867 20.3726 61.6845 19.8049H61.7376V20.3391C61.7376 21.7667 60.967 22.5287 59.7268 22.5287C58.8821 22.509 58.1331 21.9865 57.8312 21.2061L56.3873 21.8017C56.9433 23.1389 58.2645 24.0086 59.7268 24C61.6668 24 63.2701 22.8702 63.2701 20.1201V13.4901H61.7465V14.1032ZM59.8488 19.2527L59.8515 19.2529H59.8426L59.8488 19.2527ZM61.3414 18.5504C60.9613 18.9756 60.4221 19.2292 59.8488 19.2527C58.6656 19.1482 57.7586 18.168 57.7586 16.9933C57.7586 15.8177 58.667 14.8369 59.8515 14.7337C60.4238 14.7627 60.96 15.019 61.3386 15.4444C61.7172 15.8698 61.906 16.4283 61.8623 16.9933C61.9111 17.5608 61.7229 18.1235 61.3414 18.5504ZM81.4483 9.5488H77.4888V20.4966H79.1457V16.3451H81.4578C82.7441 16.4365 83.9748 15.8096 84.6466 14.7205C85.3184 13.6314 85.3184 12.2626 84.6466 11.1735C83.9748 10.0843 82.7441 9.4574 81.4578 9.5488H81.4483ZM79.1353 14.8037H81.4474L81.483 14.83C82.5323 14.83 83.3829 13.9889 83.3829 12.9513C83.3829 11.9138 82.5323 11.0727 81.483 11.0727H79.1353V14.8037ZM91.6603 13.2273C90.4278 13.1545 89.2691 13.8115 88.7111 14.9001L90.1813 15.5044C90.4773 14.9646 91.0683 14.6486 91.6872 14.6987C92.1116 14.6497 92.5386 14.7713 92.8719 15.0365C93.2052 15.3016 93.4161 15.688 93.4586 16.1087V16.2226C92.9266 15.9441 92.3338 15.7997 91.7314 15.8022C90.1457 15.8022 88.5427 16.678 88.5427 18.2632C88.5739 18.9461 88.8838 19.5874 89.4011 20.041C89.9183 20.4947 90.5988 20.7222 91.2888 20.6718C92.1385 20.7321 92.9535 20.3291 93.4143 19.6208H93.4673V20.4966H95.0625V16.2839C95.0625 14.3658 93.5914 13.2535 91.7045 13.2535L91.6603 13.2273ZM90.1631 18.2981C90.1631 18.9551 90.9165 19.2266 91.4563 19.2266L91.5006 19.2529C92.4987 19.2287 93.3267 18.4816 93.4404 17.5011C92.9812 17.2475 92.4613 17.1205 91.9345 17.1333C91.1022 17.1333 90.1631 17.4223 90.1631 18.2981ZM100.874 13.49L98.9786 18.237H98.9256L96.9589 13.49H95.1875L98.1367 20.1288L96.4538 23.816H98.181L102.717 13.49H100.874ZM87.6392 20.4966H85.9832V9.5488H87.6392V20.4966Z" fill="white"/>
<path fill-rule="evenodd" clip-rule="evenodd" d="M52.5697 1.02683C51.5246 2.12058 51.5246 3.83056 52.5697 4.92423C53.6477 5.98422 55.3892 5.98422 56.4672 4.92423C57.5167 3.8323 57.5167 2.11876 56.4672 1.02683C55.9517 0.513367 55.2502 0.224609 54.5184 0.224609C53.7867 0.224609 53.0852 0.513367 52.5697 1.02683ZM32.6024 4.94246C33.0571 4.47317 33.2972 3.84002 33.2667 3.19082C33.2667 3.05872 33.2549 2.9268 33.2313 2.79669H30.6536V3.42733H32.5758C32.5627 3.82449 32.4054 4.20377 32.1329 4.49582C31.5258 5.07612 30.6251 5.23824 29.8501 4.90679C29.075 4.57541 28.5777 3.81546 28.5896 2.98069C28.5703 2.42818 28.7795 1.8918 29.1689 1.49525C29.5584 1.09861 30.0945 0.875985 30.6536 0.878675C31.2098 0.848645 31.7479 1.07899 32.1063 1.50054L32.5758 1.03629C32.349 0.77843 32.0636 0.577333 31.7431 0.449488C31.3988 0.303851 31.028 0.229296 30.6536 0.230598C29.9188 0.214368 29.2102 0.499741 28.6959 1.01884C27.9045 1.80648 27.6677 2.98642 28.0951 4.01317C28.5224 5.03993 29.5307 5.71326 30.6536 5.72202C31.3857 5.74771 32.0943 5.46434 32.6024 4.94246ZM34.9338 1.00079H37.3255V0.352715H34.2251V5.60763H37.3255V4.95956H34.9338V3.29549H37.1129V2.66486H34.9338V1.00079ZM40.2296 5.60763H39.5476V1.00079H38.0594V0.352715H41.7533V1.00079H40.2296V5.60763ZM44.3583 0.352715V5.60763H45.0404V0.352715H44.3583ZM48.0699 5.60763H47.3878V1.00079H45.8997V0.352715H49.5492V1.00079H48.0699V5.60763ZM53.0744 4.48645C53.8729 5.27253 55.1638 5.27253 55.9623 4.48645C56.7464 3.63172 56.7464 2.32819 55.9623 1.47355C55.1638 0.687472 53.8729 0.687472 53.0744 1.47355C52.2904 2.32819 52.2904 3.63172 53.0744 4.48645ZM58.2109 0.352715V5.60763H58.9019V1.32487L61.6036 5.60763H62.3123V0.352715H61.6302V4.44279L59.0436 0.352715H58.2109Z" fill="white"/>
<path d="M52.5696 4.92415L52.4072 5.07934L52.4122 5.08429L52.5696 4.92415ZM52.5696 1.02675L52.4111 0.867662L52.4072 0.871654L52.5696 1.02675ZM56.4672 4.92415L56.6247 5.08437L56.6291 5.07977L56.4672 4.92415ZM56.4672 1.02675L56.6292 0.871133L56.6257 0.867662L56.4672 1.02675ZM33.2667 3.19074L33.0419 3.19065L33.0424 3.20133L33.2667 3.19074ZM32.6023 4.94238L32.7632 5.09904L32.7636 5.09869L32.6023 4.94238ZM33.2313 2.79662L33.4522 2.75652L33.4187 2.57209H33.2313V2.79662ZM30.6536 2.79662V2.57209H30.429V2.79662H30.6536ZM30.6536 3.42725H30.429V3.65178H30.6536V3.42725ZM32.5758 3.42725L32.8002 3.43463L32.8078 3.20272H32.5758V3.42725ZM32.1329 4.49575L32.288 4.65805L32.2926 4.65362L32.297 4.64894L32.1329 4.49575ZM29.85 4.90671L29.9383 4.70032L29.85 4.90671ZM28.5896 2.98062L28.8144 2.98374L28.814 2.97272L28.5896 2.98062ZM30.6536 0.878597L30.6524 1.10313L30.659 1.10322L30.6656 1.10278L30.6536 0.878597ZM32.1063 1.50046L31.9352 1.64593L32.092 1.83027L32.2642 1.66007L32.1063 1.50046ZM32.5758 1.03621L32.7336 1.19591L32.8842 1.04697L32.7444 0.887971L32.5758 1.03621ZM31.7431 0.44941L31.6556 0.656322L31.6599 0.658058L31.7431 0.44941ZM30.6536 0.23052L30.6486 0.455051H30.6543L30.6536 0.23052ZM28.6959 1.01877L28.8543 1.17786L28.8554 1.17673L28.6959 1.01877ZM28.095 4.0131L27.8877 4.09937L28.095 4.0131ZM30.6536 5.72195L30.6615 5.49742L30.6553 5.49733L30.6536 5.72195ZM37.3255 1.00071V1.22525H37.55V1.00071H37.3255ZM34.9337 1.00071V0.776183H34.7092V1.00071H34.9337ZM37.3255 0.352637H37.55V0.128018H37.3255V0.352637ZM34.2251 0.352637V0.128018H34.0005V0.352637H34.2251ZM34.2251 5.60755H34.0005V5.83209H34.2251V5.60755ZM37.3255 5.60755V5.83209H37.55V5.60755H37.3255ZM37.3255 4.95948H37.55V4.73486H37.3255V4.95948ZM34.9337 4.95948H34.7092V5.18401H34.9337V4.95948ZM34.9337 3.29541V3.07079H34.7092V3.29541H34.9337ZM37.1128 3.29541V3.51994H37.3373V3.29541H37.1128ZM37.1128 2.66478H37.3373V2.44025H37.1128V2.66478ZM34.9337 2.66478H34.7092V2.88931H34.9337V2.66478ZM39.5476 5.60755H39.323V5.83209H39.5476V5.60755ZM40.2296 5.60755V5.83209H40.4542V5.60755H40.2296ZM39.5476 1.00071H39.7721V0.776183H39.5476V1.00071ZM38.0594 1.00071H37.8348V1.22525H38.0594V1.00071ZM38.0594 0.352637V0.128018H37.8348V0.352637H38.0594ZM41.7532 0.352637H41.9778V0.128018H41.7532V0.352637ZM41.7532 1.00071V1.22525H41.9778V1.00071H41.7532ZM40.2296 1.00071V0.776183H40.0051V1.00071H40.2296ZM44.3582 5.60755H44.1337V5.83209H44.3582V5.60755ZM44.3582 0.352637V0.128018H44.1337V0.352637H44.3582ZM45.0403 5.60755V5.83209H45.2649V5.60755H45.0403ZM45.0403 0.352637H45.2649V0.128018H45.0403V0.352637ZM47.3878 5.60755H47.1633V5.83209H47.3878V5.60755ZM48.0699 5.60755V5.83209H48.2944V5.60755H48.0699ZM47.3878 1.00071H47.6123V0.776183H47.3878V1.00071ZM45.8997 1.00071H45.6751V1.22525H45.8997V1.00071ZM45.8997 0.352637V0.128018H45.6751V0.352637H45.8997ZM49.5492 0.352637H49.7737V0.128018H49.5492V0.352637ZM49.5492 1.00071V1.22525H49.7737V1.00071H49.5492ZM48.0699 1.00071V0.776183H47.8454V1.00071H48.0699ZM55.9622 4.48637L56.12 4.64651L56.1277 4.63817L55.9622 4.48637ZM53.0744 4.48637L52.9087 4.63835L52.9169 4.64633L53.0744 4.48637ZM55.9622 1.47347L56.1278 1.3215L56.1198 1.31351L55.9622 1.47347ZM53.0744 1.47347L52.9167 1.31325L52.909 1.32167L53.0744 1.47347ZM58.2109 5.60755H57.9863V5.83209H58.2109V5.60755ZM58.2109 0.352637V0.128018H57.9863V0.352637H58.2109ZM58.9018 5.60755V5.83209H59.1264V5.60755H58.9018ZM58.9018 1.3248L59.0917 1.20494L58.6773 0.548006V1.3248H58.9018ZM61.6036 5.60755L61.4137 5.72733L61.4797 5.83209H61.6036V5.60755ZM62.3122 5.60755V5.83209H62.5368V5.60755H62.3122ZM62.3122 0.352637H62.5368V0.128018H62.3122V0.352637ZM61.6301 0.352637V0.128018H61.4056V0.352637H61.6301ZM61.6301 4.44272L61.4404 4.56275L61.8547 5.21786V4.44272H61.6301ZM59.0435 0.352637L59.2334 0.232603L59.1672 0.128018H59.0435V0.352637ZM52.7319 4.76906C51.7698 3.76218 51.7698 2.18881 52.7319 1.18185L52.4072 0.871654C51.2793 2.05211 51.2793 3.89879 52.4072 5.07934L52.7319 4.76906ZM56.3098 4.76411C55.3191 5.73809 53.7177 5.73809 52.7271 4.76411L52.4122 5.08429C53.5776 6.23012 55.4592 6.23012 56.6246 5.08429L56.3098 4.76411ZM56.3053 1.18237C57.2712 2.18742 57.2712 3.76357 56.3053 4.76862L56.6291 5.07977C57.7621 3.90096 57.7621 2.05003 56.6291 0.871133L56.3053 1.18237ZM54.5184 0.449062C55.1912 0.449062 55.8355 0.71456 56.3087 1.18584L56.6257 0.867662C56.0678 0.312018 55.3092 0 54.5184 0V0.449062ZM52.728 1.18584C53.2012 0.71456 53.8456 0.449062 54.5184 0.449062V0C53.7276 0 52.969 0.312018 52.4111 0.867662L52.728 1.18584ZM33.0424 3.20133C33.0699 3.78822 32.8529 4.36105 32.4411 4.78615L32.7636 5.09869C33.2612 4.58506 33.5243 3.89176 33.491 3.18024L33.0424 3.20133ZM33.0103 2.8368C33.0316 2.95362 33.0422 3.07201 33.0422 3.19065L33.4912 3.19083C33.4913 3.04519 33.4782 2.8999 33.4522 2.75652L33.0103 2.8368ZM30.6536 3.02123H33.2313V2.57209H30.6536V3.02123ZM30.8781 3.42725V2.79662H30.429V3.42725H30.8781ZM32.5758 3.20272H30.6536V3.65178H32.5758V3.20272ZM32.297 4.64894C32.6064 4.31739 32.7853 3.88647 32.8002 3.43463L32.3513 3.41987C32.34 3.76244 32.2045 4.08999 31.9687 4.34256L32.297 4.64894ZM29.7618 5.11319C30.619 5.4798 31.6156 5.30074 32.288 4.65805L31.9777 4.33345C31.4358 4.85125 30.6311 4.99654 29.9383 4.70032L29.7618 5.11319ZM28.365 2.97741C28.3518 3.90443 28.904 4.7464 29.7618 5.11319L29.9383 4.70032C29.2459 4.40418 28.8035 3.72642 28.8141 2.98374L28.365 2.97741ZM29.0087 1.33781C28.5764 1.77811 28.3437 2.37403 28.3652 2.98843L28.814 2.97272C28.7968 2.48217 28.9826 2.00542 29.3291 1.65244L29.0087 1.33781ZM30.6546 0.654066C30.0353 0.651028 29.4409 0.897604 29.0087 1.33781L29.3291 1.65244C29.6759 1.29937 30.1536 1.1007 30.6524 1.10313L30.6546 0.654066ZM32.2774 1.355C31.8731 0.879639 31.2671 0.620564 30.6414 0.654413L30.6656 1.10278C31.1524 1.07648 31.6225 1.27819 31.9352 1.64593L32.2774 1.355ZM32.4179 0.876601L31.9484 1.34077L32.2642 1.66007L32.7336 1.19591L32.4179 0.876601ZM31.6599 0.658058C31.9478 0.772797 32.2039 0.953325 32.4071 1.18454L32.7444 0.887971C32.4942 0.603379 32.1795 0.381712 31.8263 0.240848L31.6599 0.658058ZM30.6543 0.455051C30.9985 0.453923 31.3392 0.522402 31.6556 0.656235L31.8306 0.242671C31.4583 0.0851432 31.0575 0.00459984 30.6528 0.00598851L30.6543 0.455051ZM28.8554 1.17673C29.326 0.701801 29.9751 0.440123 30.6486 0.454965L30.6585 0.00598851C29.8625 -0.0115435 29.0943 0.297524 28.5364 0.860718L28.8554 1.17673ZM28.3023 3.92682C27.9102 2.9847 28.1271 1.90162 28.8543 1.17786L28.5375 0.85959C27.6817 1.71119 27.4252 2.98808 27.8877 4.09937L28.3023 3.92682ZM30.6553 5.49733C29.6213 5.48934 28.6947 4.86939 28.3023 3.92682L27.8877 4.09937C28.3501 5.21031 29.44 5.9371 30.6518 5.94648L30.6553 5.49733ZM32.4415 4.78581C31.9778 5.26195 31.3306 5.52102 30.6615 5.4975L30.6457 5.9463C31.4406 5.97434 32.2107 5.66657 32.7632 5.09904L32.4415 4.78581ZM37.3255 0.776183H34.9337V1.22525H37.3255V0.776183ZM37.1008 0.352637V1.00071H37.55V0.352637H37.1008ZM34.2251 0.577168H37.3255V0.128018H34.2251V0.577168ZM34.4496 5.60755V0.352637H34.0005V5.60755H34.4496ZM37.3255 5.38302H34.2251V5.83209H37.3255V5.38302ZM37.1008 4.95948V5.60755H37.55V4.95948H37.1008ZM34.9337 5.18401H37.3255V4.73486H34.9337V5.18401ZM34.7092 3.29541V4.95948H35.1583V3.29541H34.7092ZM37.1128 3.07079H34.9337V3.51994H37.1128V3.07079ZM36.8883 2.66478V3.29541H37.3373V2.66478H36.8883ZM34.9337 2.88931H37.1128V2.44025H34.9337V2.88931ZM34.7092 1.00071V2.66478H35.1583V1.00071H34.7092ZM39.5476 5.83209H40.2296V5.38302H39.5476V5.83209ZM39.323 1.00071V5.60755H39.7721V1.00071H39.323ZM38.0594 1.22525H39.5476V0.776183H38.0594V1.22525ZM37.8348 0.352637V1.00071H38.2839V0.352637H37.8348ZM41.7532 0.128018H38.0594V0.577168H41.7532V0.128018ZM41.9778 1.00071V0.352637H41.5287V1.00071H41.9778ZM40.2296 1.22525H41.7532V0.776183H40.2296V1.22525ZM40.4542 5.60755V1.00071H40.0051V5.60755H40.4542ZM44.5828 5.60755V0.352637H44.1337V5.60755H44.5828ZM45.0403 5.38302H44.3582V5.83209H45.0403V5.38302ZM44.8158 0.352637V5.60755H45.2649V0.352637H44.8158ZM44.3582 0.577168H45.0403V0.128018H44.3582V0.577168ZM47.3878 5.83209H48.0699V5.38302H47.3878V5.83209ZM47.1633 1.00071V5.60755H47.6123V1.00071H47.1633ZM45.8997 1.22525H47.3878V0.776183H45.8997V1.22525ZM45.6751 0.352637V1.00071H46.1242V0.352637H45.6751ZM49.5492 0.128018H45.8997V0.577168H49.5492V0.128018ZM49.7737 1.00071V0.352637H49.3246V1.00071H49.7737ZM48.0699 1.22525H49.5492V0.776183H48.0699V1.22525ZM48.2944 5.60755V1.00071H47.8454V5.60755H48.2944ZM55.8046 4.32633C55.0936 5.02639 53.943 5.02639 53.2319 4.32633L52.9169 4.64633C53.8027 5.51851 55.234 5.51851 56.1198 4.64633L55.8046 4.32633ZM55.7967 1.62527C56.5021 2.39408 56.5021 3.56577 55.7967 4.33449L56.1277 4.63817C56.9906 3.69761 56.9906 2.26224 56.1277 1.32167L55.7967 1.62527ZM53.2319 1.63352C53.943 0.93345 55.0936 0.93345 55.8046 1.63352L56.1198 1.31351C55.234 0.441338 53.8027 0.441338 52.9169 1.31351L53.2319 1.63352ZM53.2399 4.33449C52.5346 3.56577 52.5346 2.39408 53.2399 1.62527L52.909 1.32167C52.0461 2.26224 52.0461 3.69761 52.909 4.63817L53.2399 4.33449ZM58.4355 5.60755V0.352637H57.9863V5.60755H58.4355ZM58.9018 5.38302H58.2109V5.83209H58.9018V5.38302ZM58.6773 1.3248V5.60755H59.1264V1.3248H58.6773ZM61.7935 5.48778L59.0917 1.20494L58.7119 1.44457L61.4137 5.72733L61.7935 5.48778ZM62.3122 5.38302H61.6036V5.83209H62.3122V5.38302ZM62.0877 0.352637V5.60755H62.5368V0.352637H62.0877ZM61.6301 0.577168H62.3122V0.128018H61.6301V0.577168ZM61.8547 4.44272V0.352637H61.4056V4.44272H61.8547ZM58.8538 0.472584L61.4404 4.56275L61.8199 4.32268L59.2334 0.232603L58.8538 0.472584ZM58.2109 0.577168H59.0435V0.128018H58.2109V0.577168Z" fill="white"/>
<path d="M0.50991 0.825435C0.221153 1.168 0.0754289 1.60648 0.102421 2.05163V21.4249C0.0754289 21.8699 0.221153 22.3084 0.50991 22.651L0.571879 22.7123L11.5472 11.8696V11.6156L0.571879 0.76416L0.50991 0.825435Z" fill="url(#paint0_linear_40_8371)"/>
<path d="M15.179 15.4868L11.5471 11.8696V11.6157L15.179 7.98975L15.2587 8.03349L19.6081 10.477C20.8483 11.1689 20.8483 12.3076 19.6081 13.0082L15.2764 15.443L15.179 15.4868Z" fill="url(#paint1_linear_40_8371)"/>
<path d="M15.2862 15.4338L11.548 11.7378L0.510742 22.6506C1.03219 23.1038 1.8062 23.1259 2.35325 22.7031L15.2951 15.4338" fill="url(#paint2_linear_40_8371)"/>
<path d="M15.285 8.04189L2.34312 0.772523C1.79607 0.349759 1.02214 0.371891 0.50061 0.82512L11.5468 11.7378L15.285 8.04189Z" fill="url(#paint3_linear_40_8371)"/>
<path opacity="0.2" d="M15.1799 15.355L2.3444 22.5805C1.81913 22.9688 1.09798 22.9688 0.572712 22.5805L0.510742 22.6419L0.572712 22.7032C1.09702 23.0943 1.82009 23.0943 2.3444 22.7032L15.2862 15.4338L15.1799 15.355Z" fill="white"/>
<path opacity="0.12" fill-rule="evenodd" clip-rule="evenodd" d="M15.179 15.3549L19.6081 12.8764C20.0657 12.653 20.3929 12.2325 20.4939 11.7378C20.4482 12.2847 20.1103 12.7657 19.6081 12.999L15.2586 15.4338L15.179 15.3549ZM0.100908 21.4722C0.115576 21.8576 0.258608 22.2292 0.510306 22.5279L0.572363 22.598L0.510306 22.6593C0.230054 22.3268 0.0845912 21.9038 0.100908 21.4722ZM0.100908 21.4722C0.101429 21.4592 0.102037 21.4462 0.102905 21.4332V21.3018C0.0994329 21.3588 0.0988252 21.4156 0.100908 21.4722Z" fill="white"/>
<path opacity="0.25" d="M2.34324 0.89705L19.6078 10.6011C20.0656 10.8245 20.3927 11.245 20.4937 11.7397C20.4481 11.1929 20.1102 10.7119 19.6078 10.4786L2.34324 0.774412C1.10315 0.0825052 0.0933228 0.660541 0.0933228 2.06189V2.1932C0.119881 0.783178 1.112 0.205143 2.34324 0.89705Z" fill="white"/>
<defs>
<linearGradient id="paint0_linear_40_8371" x1="6.74003" y1="-12.3986" x2="-10.8075" y2="-7.6785" gradientUnits="userSpaceOnUse">
<stop stop-color="#00A0FF"/>
<stop offset="0.01" stop-color="#00A1FF"/>
<stop offset="0.26" stop-color="#00BEFF"/>
<stop offset="0.51" stop-color="#00D2FF"/>
<stop offset="0.76" stop-color="#00DFFF"/>
<stop offset="1" stop-color="#00E3FF"/>
</linearGradient>
<linearGradient id="paint1_linear_40_8371" x1="21.2291" y1="2.80461" x2="-0.198814" y2="2.80461" gradientUnits="userSpaceOnUse">
<stop stop-color="#FFE000"/>
<stop offset="0.41" stop-color="#FFBD00"/>
<stop offset="0.78" stop-color="#FFA500"/>
<stop offset="1" stop-color="#FF9C00"/>
</linearGradient>
<linearGradient id="paint2_linear_40_8371" x1="0.1864" y1="6.06905" x2="-13.6949" y2="29.6853" gradientUnits="userSpaceOnUse">
<stop stop-color="#FF3A44"/>
<stop offset="1" stop-color="#C31162"/>
</linearGradient>
<linearGradient id="paint3_linear_40_8371" x1="-8.10953" y1="-2.19122" x2="-1.9136" y2="8.3546" gradientUnits="userSpaceOnUse">
<stop stop-color="#32A071"/>
<stop offset="0.07" stop-color="#2DA771"/>
<stop offset="0.48" stop-color="#15CF74"/>
<stop offset="0.8" stop-color="#06E775"/>
<stop offset="1" stop-color="#00F076"/>
</linearGradient>
</defs>
</svg>
