<svg width="25" height="24" viewBox="0 0 25 24" fill="none" xmlns="http://www.w3.org/2000/svg">
<path fill-rule="evenodd" clip-rule="evenodd" d="M8.36676 1.94999H2.66673V7.64992H8.36676V1.94999ZM2.66673 0C1.58975 0 0.716736 0.873012 0.716736 1.94999V7.64992C0.716736 8.7269 1.58975 9.59992 2.66673 9.59992H8.36676C9.44364 9.59992 10.3168 8.7269 10.3168 7.64992V1.94999C10.3168 0.873012 9.44364 0 8.36676 0H2.66673ZM17.5167 14.625C17.5167 15.1634 17.9532 15.6 18.4917 15.6H18.9417C19.4802 15.6 19.9167 15.1634 19.9167 14.625V9.37499C19.9167 8.8365 19.4802 8.39999 18.9417 8.39999H18.4917C17.9532 8.39999 17.5167 8.8365 17.5167 9.37499V14.625ZM22.7667 1.94999H19.4667V5.24997H22.7667V1.94999ZM19.4667 0C18.3897 0 17.5167 0.873012 17.5167 1.94999V5.24997C17.5167 6.32695 18.3897 7.19996 19.4667 7.19996H22.7667C23.8437 7.19996 24.7167 6.32695 24.7167 5.24997V1.94999C24.7167 0.873012 23.8437 0 22.7667 0H19.4667ZM5.9667 18.75H2.66673V22.0499H5.9667V18.75ZM2.66673 16.8C1.58975 16.8 0.716736 17.673 0.716736 18.75V22.0499C0.716736 23.1268 1.58975 23.9999 2.66673 23.9999H5.9667C7.04369 23.9999 7.9167 23.1268 7.9167 22.0499V18.75C7.9167 17.673 7.04369 16.8 5.9667 16.8H2.66673Z" fill="white"/>
<path d="M15.3414 0H12.4914C11.9529 0 11.5164 0.436521 11.5164 0.974997V1.425C11.5164 1.96347 11.9529 2.39999 12.4914 2.39999H15.3414C15.8799 2.39999 16.3164 1.96347 16.3164 1.425V0.974997C16.3164 0.436521 15.8799 0 15.3414 0Z" fill="white"/>
<path d="M9.3417 10.8003H1.69173C1.15326 10.8003 0.716736 11.2368 0.716736 11.7753V12.2253C0.716736 12.7638 1.15326 13.2003 1.69173 13.2003H9.3417C9.88018 13.2003 10.3167 12.7638 10.3167 12.2253V11.7753C10.3167 11.2368 9.88018 10.8003 9.3417 10.8003Z" fill="white"/>
<path d="M15.3414 6H12.4914C11.9529 6 11.5164 6.43652 11.5164 6.975V7.425C11.5164 7.96347 11.9529 8.39999 12.4914 8.39999H15.3414C15.8799 8.39999 16.3164 7.96347 16.3164 7.425V6.975C16.3164 6.43652 15.8799 6 15.3414 6Z" fill="white"/>
<path d="M15.3416 9.6001H13.6916C13.1531 9.6001 12.7166 10.0366 12.7166 10.5751V11.0251C12.7166 11.5636 13.1531 12.0001 13.6916 12.0001H15.3416C15.8801 12.0001 16.3166 11.5636 16.3166 11.0251V10.5751C16.3166 10.0366 15.8801 9.6001 15.3416 9.6001Z" fill="white"/>
<path d="M15.3414 13.2002H12.4914C11.9529 13.2002 11.5164 13.6367 11.5164 14.1752V14.6252C11.5164 15.1637 11.9529 15.6002 12.4914 15.6002H15.3414C15.8799 15.6002 16.3164 15.1637 16.3164 14.6252V14.1752C16.3164 13.6367 15.8799 13.2002 15.3414 13.2002Z" fill="white"/>
<path d="M23.7417 21.6001H20.8917C20.3533 21.6001 19.9167 22.0366 19.9167 22.5751V23.0251C19.9167 23.5636 20.3533 24.0001 20.8917 24.0001H23.7417C24.2802 24.0001 24.7167 23.5636 24.7167 23.0251V22.5751C24.7167 22.0366 24.2802 21.6001 23.7417 21.6001Z" fill="white"/>
<path d="M9.34187 15.6001H8.89187C8.35339 15.6001 7.91687 15.1636 7.91687 14.6251V11.7751C7.91687 11.2366 8.35339 10.8001 8.89187 10.8001H9.34187C9.88034 10.8001 10.3169 11.2366 10.3169 11.7751V14.6251C10.3169 15.1636 9.88034 15.6001 9.34187 15.6001Z" fill="white"/>
<path d="M10.5416 24.0005H10.0916C9.5531 24.0005 9.11658 23.564 9.11658 23.0255V21.3755C9.11658 20.837 9.5531 20.4005 10.0916 20.4005H10.5416C11.0801 20.4005 11.5166 20.837 11.5166 21.3755V23.0255C11.5166 23.564 11.0801 24.0005 10.5416 24.0005Z" fill="white"/>
<path d="M10.5416 19.2002H10.0916C9.5531 19.2002 9.11658 18.7637 9.11658 18.2252V17.7752C9.11658 17.2367 9.5531 16.8002 10.0916 16.8002H10.5416C11.0801 16.8002 11.5166 17.2367 11.5166 17.7752V18.2252C11.5166 18.7637 11.0801 19.2002 10.5416 19.2002Z" fill="white"/>
<path d="M14.1416 20.3999H13.6916C13.1531 20.3999 12.7166 19.9634 12.7166 19.4249V17.7749C12.7166 17.2364 13.1531 16.7999 13.6916 16.7999H14.1416C14.6801 16.7999 15.1166 17.2364 15.1166 17.7749V19.4249C15.1166 19.9634 14.6801 20.3999 14.1416 20.3999Z" fill="white"/>
<path d="M17.7417 24.0005H17.2917C16.7532 24.0005 16.3167 23.564 16.3167 23.0255V18.9755C16.3167 18.437 16.7532 18.0005 17.2917 18.0005H17.7417C18.2802 18.0005 18.7167 18.437 18.7167 18.9755V23.0255C18.7167 23.564 18.2802 24.0005 17.7417 24.0005Z" fill="white"/>
<path d="M12.9414 8.40039H12.4914C11.9529 8.40039 11.5164 7.96387 11.5164 7.42539V4.5754C11.5164 4.03692 11.9529 3.6004 12.4914 3.6004H12.9414C13.4799 3.6004 13.9164 4.03692 13.9164 4.5754V7.42539C13.9164 7.96387 13.4799 8.40039 12.9414 8.40039Z" fill="white"/>
<path d="M23.7416 16.8003H23.2916C22.7532 16.8003 22.3167 16.3638 22.3167 15.8253V14.1753C22.3167 13.6368 22.7532 13.2003 23.2916 13.2003H23.7416C24.2801 13.2003 24.7166 13.6368 24.7166 14.1753V15.8253C24.7166 16.3638 24.2801 16.8003 23.7416 16.8003Z" fill="white"/>
<path d="M4.54164 15.6001H4.09164C3.55316 15.6001 3.11664 15.1636 3.11664 14.6251V11.7751C3.11664 11.2366 3.55316 10.8001 4.09164 10.8001H4.54164C5.08011 10.8001 5.51663 11.2366 5.51663 11.7751V14.6251C5.51663 15.1636 5.08011 15.6001 4.54164 15.6001Z" fill="white"/>
<path d="M23.7414 8.40039H18.4914C17.9529 8.40039 17.5164 8.83691 17.5164 9.37539V9.82539C17.5164 10.3639 17.9529 10.8004 18.4914 10.8004H23.7414C24.2799 10.8004 24.7164 10.3639 24.7164 9.82539V9.37539C24.7164 8.83691 24.2799 8.40039 23.7414 8.40039Z" fill="white"/>
<path d="M23.7417 18H17.2917C16.7532 18 16.3167 18.4365 16.3167 18.975V19.425C16.3167 19.9635 16.7532 20.4 17.2917 20.4H23.7417C24.2802 20.4 24.7167 19.9635 24.7167 19.425V18.975C24.7167 18.4365 24.2802 18 23.7417 18Z" fill="white"/>
<path d="M17.7415 21.6001H10.0916C9.5531 21.6001 9.11658 22.0366 9.11658 22.5751V23.0251C9.11658 23.5636 9.5531 24.0001 10.0916 24.0001H17.7415C18.28 24.0001 18.7165 23.5636 18.7165 23.0251V22.5751C18.7165 22.0366 18.28 21.6001 17.7415 21.6001Z" fill="white"/>
</svg>
