<svg width="97" height="24" viewBox="0 0 97 24" fill="none" xmlns="http://www.w3.org/2000/svg">
<path fill-rule="evenodd" clip-rule="evenodd" d="M62.482 19.7704C60.9034 19.7704 59.7482 18.9959 59.6153 17.8162L57.7783 17.8161C57.8943 19.9678 59.6897 21.3289 62.349 21.3289C65.1912 21.3289 66.9781 19.935 66.9781 17.7095C66.9781 15.9695 65.9559 14.9891 63.4957 14.4119L62.1745 14.0901C60.629 13.7112 59.9972 13.2163 59.9972 12.3754C59.9972 11.3202 60.9864 10.5951 62.432 10.5951C63.8775 10.5951 64.8667 11.3117 64.9752 12.4988H66.7867C66.7282 10.4464 64.9913 9.03662 62.4575 9.03662C59.8973 9.03662 58.0942 10.4464 58.0942 12.4988C58.0942 14.1565 59.1164 15.1781 61.3183 15.7057L62.8724 16.0771C64.4264 16.456 65.0827 17.0089 65.0827 17.9322C65.0827 18.9958 63.9945 19.7704 62.482 19.7704ZM31.2186 17.9154H26.6479L25.5502 21.1307H23.6143L27.9436 9.23497H29.955L34.2842 21.1307H32.3153L31.2186 17.9154ZM27.1207 16.4317H30.7437L28.9577 11.2135H28.9077L27.1207 16.4317ZM39.9854 21.2214C42.1797 21.2214 43.6338 19.4898 43.6338 16.7946C43.6338 14.107 42.1712 12.367 39.9524 12.367C38.8106 12.3305 37.7411 12.9196 37.1687 13.9002H37.1357V12.4578H35.3987V23.9998H37.1932V19.704H37.2347C37.7828 20.6909 38.8512 21.2803 39.9854 21.2214ZM41.7888 16.7946C41.7888 15.0388 40.8741 13.8843 39.4785 13.8843C38.1074 13.8843 37.1852 15.063 37.1852 16.7946C37.1852 18.5421 38.1074 19.7125 39.4785 19.7125C40.8741 19.7125 41.7888 18.5665 41.7888 16.7946ZM49.6078 21.2214C51.8021 21.2214 53.2562 19.4898 53.2562 16.7946C53.2562 14.107 51.7936 12.367 49.5747 12.367C48.433 12.3305 47.3635 12.9196 46.791 13.9002H46.758V12.4577H45.0211V23.9997H46.8155V19.704H46.8571C47.4051 20.6909 48.4735 21.2803 49.6078 21.2214ZM51.4111 16.7946C51.4111 15.0388 50.4965 13.8843 49.1008 13.8843C47.7297 13.8843 46.8075 15.063 46.8075 16.7946C46.8075 18.5421 47.7297 19.7125 49.1008 19.7125C50.4965 19.7125 51.4111 18.5665 51.4111 16.7946ZM70.8518 10.4053V12.4578H72.5146V13.8675H70.8518V18.6488C70.8518 19.3916 71.185 19.7377 71.9152 19.7377C72.1131 19.7343 72.3101 19.7206 72.5055 19.6965V21.0979C72.1768 21.1588 71.8432 21.1864 71.5087 21.1802C69.739 21.1802 69.0488 20.5207 69.0488 18.8387V13.8675H67.7776V12.4578H69.0488V10.4053H70.8518ZM77.6224 12.3511C75.0966 12.3511 73.4765 14.0659 73.4765 16.7946C73.4765 19.5309 75.0801 21.2382 77.6224 21.2382C80.1664 21.2382 81.7699 19.531 81.7699 16.7946C81.7699 14.0658 80.1573 12.3511 77.6224 12.3511ZM79.9429 16.7946C79.9429 14.9227 79.0778 13.8179 77.6241 13.8179C76.1695 13.8179 75.3061 14.9312 75.3061 16.7946C75.3061 18.674 76.1695 19.7704 77.6241 19.7704C79.0778 19.7704 79.9429 18.674 79.9429 16.7946ZM84.9613 12.4578H83.2501V21.1307H85.0441V15.9864C84.9845 15.4659 85.1575 14.9456 85.5168 14.562C85.876 14.1784 86.3868 13.9698 86.9142 13.991C87.1874 13.9831 87.4597 14.0194 87.7205 14.0986V12.4334C87.5185 12.3886 87.3124 12.3663 87.1054 12.367C86.1194 12.3296 85.2419 12.9836 85.0027 13.9339H84.9613V12.4578ZM95.994 18.5833C95.7523 20.1578 94.2067 21.2382 92.229 21.2382C89.6858 21.2382 88.1071 19.5478 88.1071 16.8359C88.1071 14.1155 89.6949 12.3511 92.1536 12.3511C94.5726 12.3511 96.0934 13.9994 96.0934 16.6291V17.239H89.9193V17.3466C89.8613 17.9923 90.0865 18.6314 90.536 19.1014C90.9864 19.5714 91.618 19.827 92.2712 19.8032C93.1412 19.8842 93.9625 19.388 94.2895 18.5833H95.994ZM94.2994 15.9949H89.9284C89.9267 15.4093 90.161 14.8474 90.579 14.434C90.9979 14.0207 91.565 13.7901 92.1553 13.7936C92.7406 13.7811 93.3052 14.0116 93.7116 14.4294C94.1189 14.8473 94.3317 15.4146 94.2994 15.9949Z" fill="white"/>
<path fill-rule="evenodd" clip-rule="evenodd" d="M47.4329 0H48.2909V5.99745H47.4329V0ZM28.9292 1.06504C28.404 0.514938 27.6578 0.227344 26.896 0.281568H24.8148V5.99745H26.896C28.6122 5.99745 29.6072 4.94782 29.6072 3.12175C29.7032 2.37006 29.4544 1.61523 28.9292 1.06504ZM26.7964 5.18922H25.7101V1.08938H26.7964C27.338 1.05958 27.8647 1.27143 28.2323 1.66697C28.6001 2.06252 28.7703 2.60037 28.6966 3.13342C28.7761 3.66871 28.6083 4.21112 28.2396 4.60989C27.8711 5.00867 27.3409 5.2215 26.7964 5.18922ZM30.6177 3.83883C30.5431 3.0657 30.9168 2.31741 31.5821 1.90788C32.2473 1.49834 33.0891 1.49834 33.7543 1.90788C34.4196 2.31741 34.7933 3.0657 34.7187 3.83883C34.7947 4.61287 34.4213 5.36257 33.7555 5.77293C33.0897 6.18338 32.2467 6.18338 31.5809 5.77293C30.9151 5.36257 30.5417 4.61287 30.6177 3.83883ZM32.6701 2.35698C33.4132 2.35698 33.8366 2.90378 33.8366 3.83883C33.8366 4.77753 33.4132 5.32391 32.6701 5.32391C31.9243 5.32391 31.5047 4.78134 31.5047 3.83883C31.5047 2.90378 31.9242 2.35698 32.6701 2.35698ZM40.1699 5.99745H39.2797L38.3811 2.8205H38.3132L37.4183 5.99745H36.5366L35.338 1.68386H36.2084L36.9873 4.97539H37.0515L37.9454 1.68386H38.7686L39.6626 4.97539H39.7305L40.5056 1.68386H41.3638L40.1699 5.99745ZM43.1989 1.68394H42.3729V5.99745H43.2311V3.474C43.2003 3.1869 43.2974 2.9008 43.497 2.69069C43.6965 2.48058 43.9786 2.36741 44.2693 2.38091C44.9039 2.38091 45.2075 2.72562 45.2075 3.41878V5.99745H46.0657V3.20503C46.1285 2.78324 45.9947 2.35599 45.7019 2.04389C45.4092 1.73179 44.9892 1.56871 44.5607 1.60066C44.0072 1.55604 43.4861 1.86466 43.2631 2.36915H43.1989V1.68394ZM50.4486 1.90779C49.7833 2.31733 49.4095 3.06562 49.484 3.83883C49.4081 4.61287 49.7816 5.36257 50.4474 5.77293C51.1133 6.1833 51.9562 6.1833 52.6221 5.77293C53.288 5.36257 53.6614 4.61287 53.5855 3.83883C53.66 3.06562 53.2863 2.31733 52.621 1.90779C51.9557 1.49826 51.1139 1.49826 50.4486 1.90779ZM52.7016 3.83883C52.7016 2.90378 52.2782 2.35698 51.5351 2.35698C50.7892 2.35698 50.3696 2.90378 50.3696 3.83883C50.3696 4.78134 50.7892 5.32391 51.5351 5.32391C52.2782 5.32391 52.7016 4.77753 52.7016 3.83883ZM56.1057 3.48981C55.0713 3.55347 54.4885 4.00109 54.4885 4.77753C54.49 5.14567 54.6483 5.4961 54.9245 5.74206C55.2007 5.98801 55.5687 6.10656 55.9379 6.06848C56.4645 6.09265 56.9634 5.83395 57.244 5.39121H57.3118V5.99745H58.1379V3.05014C58.1379 2.13901 57.523 1.60066 56.4329 1.60066C55.4466 1.60066 54.744 2.07585 54.6564 2.81677H55.4871C55.5824 2.51179 55.9144 2.33736 56.3933 2.33736C56.9799 2.33736 57.2835 2.59458 57.2835 3.05014V3.42251L56.1057 3.48981ZM57.2827 4.40897V4.04836L56.2209 4.11566C55.6221 4.1554 55.3505 4.35748 55.3505 4.73779C55.3505 5.12597 55.69 5.35189 56.1568 5.35189C56.4332 5.37971 56.7091 5.29493 56.9213 5.1172C57.1335 4.93946 57.264 4.6839 57.2827 4.40897ZM61.0706 1.61233C59.972 1.61233 59.2657 2.47578 59.2657 3.83875C59.2657 5.20503 59.9645 6.06856 61.0706 6.06848C61.6314 6.08901 62.1574 5.79909 62.4361 5.31588H62.5039V5.99745H63.3262V0H62.4681V2.36907H62.404C62.1449 1.88188 61.6253 1.587 61.0706 1.61233ZM60.1514 3.83883C60.1514 4.75369 60.5861 5.30421 61.3131 5.30421C62.0364 5.30421 62.4833 4.74574 62.4833 3.84256C62.4833 2.94351 62.0317 2.3771 61.3131 2.3771C60.5908 2.3771 60.1514 2.93134 60.1514 3.83883ZM67.8402 1.90788C67.1749 2.31741 66.8012 3.0657 66.8758 3.83883C66.7998 4.61287 67.1732 5.36257 67.839 5.77293C68.5048 6.18338 69.3478 6.18338 70.0136 5.77293C70.6794 5.36257 71.0532 4.61287 70.9768 3.83883C71.0516 3.0657 70.6777 2.31741 70.0124 1.90788C69.3472 1.49834 68.5054 1.49834 67.8402 1.90788ZM70.0947 3.83883C70.0947 2.90378 69.6713 2.35698 68.9282 2.35698C68.1823 2.35698 67.7628 2.90378 67.7628 3.83883C67.7628 4.78134 68.1823 5.32391 68.9282 5.32391C69.6713 5.32391 70.0947 4.77753 70.0947 3.83883ZM72.9548 1.68394H72.1286V5.99745H72.9862V3.474C72.9556 3.1869 73.0525 2.9008 73.252 2.69069C73.4515 2.48058 73.7338 2.36741 74.0244 2.38091C74.6593 2.38091 74.9631 2.72562 74.9631 3.41878V5.99745H75.8208V3.20503C75.8837 2.78324 75.7504 2.35599 75.4574 2.04389C75.1643 1.73179 74.7446 1.56871 74.3158 1.60066C73.7628 1.55604 73.2412 1.86466 73.0185 2.36915H72.9548V1.68394ZM80.6712 0.609975V1.70356H81.6132V2.42064H80.6712V4.63862C80.6712 5.09046 80.8582 5.28831 81.2854 5.28831C81.3955 5.28798 81.5048 5.28144 81.6132 5.26869V5.97783C81.4593 6.00515 81.3028 6.01972 81.1463 6.02129C80.1918 6.02129 79.8118 5.68825 79.8118 4.85659V2.42056H79.1214V1.70348H79.8118V0.609975H80.6712ZM83.6349 0H82.7847V5.99736H83.6431V3.47814C83.6158 3.18218 83.7226 2.88962 83.9337 2.67877C84.1448 2.46792 84.4387 2.3603 84.7375 2.38455C85.3435 2.38455 85.6672 2.73349 85.6672 3.42251V5.99745H86.5265V3.21248C86.5828 2.79285 86.4487 2.36998 86.159 2.05904C85.8692 1.74802 85.4553 1.58137 85.0289 1.60439C84.4668 1.5591 83.937 1.86814 83.7027 2.3771H83.6349V0ZM91.53 4.83275C91.2891 5.64636 90.4952 6.17212 89.6459 6.08064C89.0655 6.09588 88.5084 5.85746 88.1218 5.42872C87.7352 4.99997 87.558 4.4242 87.6375 3.85423C87.5597 3.28268 87.7368 2.706 88.121 2.27362C88.5059 1.84123 89.0606 1.59569 89.6417 1.60066C90.852 1.60066 91.5814 2.42064 91.5814 3.77517V4.0722H88.5117V4.11989C88.4844 4.44002 88.5945 4.75659 88.8147 4.99186C89.0349 5.22713 89.3453 5.35918 89.669 5.35562C90.0888 5.40562 90.4977 5.19907 90.7038 4.83266L91.53 4.83275ZM90.7072 3.44254H88.5109C88.5076 3.1451 88.6243 2.85874 88.8371 2.6483C89.049 2.43795 89.3371 2.32139 89.6368 2.32511C89.9331 2.31841 90.2179 2.43596 90.4216 2.64872C90.6252 2.86156 90.7295 3.14981 90.7072 3.44254Z" fill="white"/>
<path fill-rule="evenodd" clip-rule="evenodd" d="M12.7276 0.270996C12.821 1.48206 12.435 2.68161 11.6513 3.61484C10.8911 4.55288 9.7391 5.09321 8.52581 5.08079C8.44865 3.90467 8.84602 2.74626 9.63024 1.8608C10.4245 0.963408 11.5303 0.395753 12.7276 0.270996ZM16.5641 7.38693C15.1685 8.23813 14.3097 9.73918 14.2885 11.3643C14.2905 13.203 15.4005 14.8622 17.1074 15.5785C16.7791 16.6364 16.2843 17.6363 15.6412 18.5409C14.7776 19.8225 13.8721 21.0747 12.4349 21.0978C11.7514 21.1134 11.2899 20.9184 10.8092 20.7153C10.3077 20.5033 9.78505 20.2825 8.9673 20.2825C8.10004 20.2825 7.55408 20.5104 7.02748 20.7303C6.57241 20.9203 6.13192 21.1042 5.51103 21.1297C4.14227 21.18 3.0962 19.7619 2.20121 18.4923C0.412314 15.8995 -0.980707 11.1854 0.886836 7.97785C1.76378 6.41454 3.40341 5.42245 5.20597 5.36475C5.98224 5.34885 6.72714 5.64572 7.38015 5.90591C7.87967 6.10493 8.32539 6.28258 8.69038 6.28258C9.01126 6.28258 9.44455 6.11196 9.94954 5.91311C10.745 5.59994 11.7183 5.21673 12.7102 5.31996C14.2514 5.36781 15.6797 6.13382 16.5641 7.38693Z" fill="white"/>
</svg>
