<?xml version="1.0" encoding="utf-8"?>
<!-- Generator: Adobe Illustrator 22.1.0, SVG Export Plug-In . SVG Version: 6.00 Build 0)  -->
<svg version="1.1" id="Layer_1" xmlns="http://www.w3.org/2000/svg" xmlns:xlink="http://www.w3.org/1999/xlink" x="0px" y="0px"
	 viewBox="0 0 612 792" style="enable-background:new 0 0 612 792;" xml:space="preserve">
<style type="text/css">
	.st0{display:none;fill:#1D2655;}
	.st1{fill:#1D2655;}
	.st2{fill:#EFD236;}
	.st3{clip-path:url(#SVGID_2_);fill:url(#SVGID_3_);}
	.st4{fill:#E7E51F;}
</style>
<rect x="101" y="639.9" class="st0" width="423.8" height="37.4"/>
<g>
	<path class="st1" d="M273.9,586.7c0,0,21.5,59.3,21.5,58.5s-3.2-37.6-3.2-37.6l11.9,35.4v-53.5c0,0,1.7-15.4,16.4-14.5
		c14.7,0.7,66.6,0.2,85.5-12.3c0,0,4.9-7.5-13.8-5.5c0,0-31.9,7.2-115.3,9.4c0,0-84-11.1-91.3-33c0,0-9.1-21.4-6-40.2
		c0,0,11.1,6.3,27.4,10.1c16.2,3.9,66.2,5.1,66.8,6c0.6,1.2,59.8-2.4,90.2-10.1l24.7-8.4h-27.7c0,0-13.2,3.9-43.2,3.6
		c-30-0.2-70.2,0.7-69.6,0.5c0.6-0.2-29.8-1.4-48.7-15.4c0,0-20.4-13,10.4-26.3l1.1-15.9l-18.1,12.3c0,0-22.3,11.6-24,18.1
		c0,0-5.1,15.2,3.2,50.6c0,0,0.2,25.5,24.9,45.5c0,0,31.9,11.8,47,33.2c0,0,13.4,7.7,17.4,41.9l13.2,53.7c0,0,2.3,9.4,6.8,7.5
		c0,0,3.8,1.4,3-10.6L273.9,586.7z"/>
	<path class="st2" d="M289,92.6c0,0-10.6,25.3-23.2,42.9c-12.6,17.6-11.7,52.8,3,71.8c0,0-1.5-44.6,12.6-60.5
		C281.4,147,312.4,111.9,289,92.6"/>
</g>
<g>
	<g>
		<defs>
			<path id="SVGID_1_" d="M281.4,215c0,0,3.8,15.9,13.2,30.8c0,0,19.8,35.2,5.7,61.9c-14,27-15.5,40.7-15.5,40.7l-12.1,17.1
				l-4.9-27.9c0,0-26.2,45.5-50.4,60.5c0,0-28.1,37.8-4.9,71.3c0,0,13.2,17.1,22.3,15.9l1.9-24.8c0,0,10.6,20.7,20.2,27.5
				c0,0,14.7-10.4,13.6-28.4c0,0,5.7-12.3,10.6-13.5c0,0-7.9,19-4,28.4c0,0,21.5,6,36.4-31.3c4.9-12.3,6.6-16.6,6.6-17.3
				c5.7-13.7,14-36.9,20.8-67.7c0,0,13.2,53.2-11.7,74.7c0,0-13.6,25.3-5.7,25.8c0,0,10.6,4.8,30.6-18.5c0,0,4.9,17.1-14.5,33.5
				c0,0-19.6,26.3,5.7,14.9c25.3-11.6,42.1-43.4,49.6-89.4l7.7-52c0,0-15.3,21-19.6,35.7l-4.3-57.6c0,0,6.8-30.1-27-73.5
				c0,0-29.6-30.1-35.9-51.1c-6.4-21-10.2-23.6-12.6-62.6C303.7,136.9,268.8,169.9,281.4,215"/>
		</defs>
		<clipPath id="SVGID_2_">
			<use xlink:href="#SVGID_1_"  style="overflow:visible;"/>
		</clipPath>
		
			<linearGradient id="SVGID_3_" gradientUnits="userSpaceOnUse" x1="-77.1093" y1="-13.4099" x2="-74.7003" y2="-13.4099" gradientTransform="matrix(0 146.8061 -146.8061 0 -1672.5024 11457.0195)">
			<stop  offset="0" style="stop-color:#FAE400"/>
			<stop  offset="1.006390e-07" style="stop-color:#FAE400"/>
			<stop  offset="0.2807" style="stop-color:#FAE200"/>
			<stop  offset="0.4239" style="stop-color:#FADD05"/>
			<stop  offset="0.5362" style="stop-color:#F9D40F"/>
			<stop  offset="0.6323" style="stop-color:#F7C717"/>
			<stop  offset="0.718" style="stop-color:#F5B61E"/>
			<stop  offset="0.7965" style="stop-color:#F3A023"/>
			<stop  offset="0.8694" style="stop-color:#F18825"/>
			<stop  offset="0.936" style="stop-color:#F06B27"/>
			<stop  offset="0.9988" style="stop-color:#EF4028"/>
			<stop  offset="1" style="stop-color:#EF3F28"/>
		</linearGradient>
		<rect x="189.3" y="136.9" class="st3" width="213.8" height="362.3"/>
	</g>
</g>
<g>
	<path class="st4" d="M219.5,459.5c0,0-13.2-37.3,8.1-58.3l15.5-18.3v16.9c0,0,26.6-7.7,49.1-44.3l12.3-18.5c0,0,8.7,13.5,6.4,28.9
		c0,0,7.4,0,13.2-7c0,0,1.3,31.1-9.8,44.6c0,0,3.6,19.8-7,36.6l-9.6,13.5c0,0,0.4-10.8,3.6-21c1.5-4.8,0.6-10.1-2.3-13.7
		c-1.9-2.2-4.3-3.4-7.2-1.4c0,0-22.5,11.8-27.9,38.1c0,0-3.6-26.7-13.6-9.6l-3,10.1c0,0-6.8-22.6-4.5-29.4
		C243.1,426.5,230.7,423.8,219.5,459.5"/>
	<path class="st1" d="M187.8,514.6c0,0-7.2,14.9,15.5,24.8c0,0,38.3,19.3,133.4,18.1c0,0,21.9-1.2,36.8-8.2L292,546
		c0,0-35.3-2.6-37.9-9.9l48.9-3.9l-33.4-7.7L187.8,514.6z"/>
</g>
</svg>
